<?xml version="1.0" encoding="UTF-8" standalone="no"?>
<svg width="398px" height="90px" viewBox="0 0 398 90" version="1.1" xmlns="http://www.w3.org/2000/svg" xmlns:xlink="http://www.w3.org/1999/xlink">
    <!-- Generator: Sketch Beta 3.8 (29681) - http://www.bohemiancoding.com/sketch -->
    <title>ico_crecer_logo</title>
    <desc>Created with Sketch Beta.</desc>
    <defs></defs>
    <g id="Page-1" stroke="none" stroke-width="1" fill="none" fill-rule="evenodd">
        <g id="ico_crecer_logo" fill="#ffffff">
            <g id="Group" transform="translate(11.000000, 14.000000)">
                <rect id="Rectangle-1" x="6" y="46" width="24" height="3"></rect>
                <path d="M0,59.958313 L3.19039192,59.958313 L7.19451904,48.9828491 L27.5581665,48.9944458 L31.3671875,59.9827881 L34.5045776,59.9827881 L19.0232544,15 L16.3592529,15 L0,59.958313 Z M17.6548462,20.2592773 L8.29400635,45.9699097 L26.5338135,45.9779663 L17.6548462,20.2592773 Z" id="Combined-Shape"></path>
                <path d="M164.996365,14.9125763 C165.854542,13.0329294 170.0612,4.91166863 170.0612,4.91166863 C170.0612,4.91166863 165.532383,7.53282769e-10 151.133724,0 C136.735064,-7.53282769e-10 129.792202,6.69250154 126.86891,11.4851713 C123.945618,16.2778411 121,21.7178116 121,32.2113228 C121,42.704834 123.187815,47.5712776 129.093907,54.20504 C135,60.8388023 146.757899,60.9705054 150.008081,60.9705048 C153.258264,60.9705041 165.118291,60.5003058 170.061199,56.8887634 C169.541092,55.3755913 167,48.9497757 166.025496,45.9287596 C162.736965,48 156.980128,49.896227 150.040153,49.8962279 C143.100178,49.8962288 135.007605,45.1686265 135.007606,29.5592002 C135.007607,13.9497738 145.587471,11.9280436 150.048004,11.9280435 C154.508537,11.9280434 159.220692,12.2514524 164.996365,14.9125763 Z" id="Path-5"></path>
                <path d="M177,17.864544 L177.044449,59.8503502 L189.104815,59.8503507 L189.104815,26.677069 C189.104815,26.677069 191.354932,24.8825733 195.70031,24.8825734 C200.045688,24.8825735 203.214409,26.677069 203.214409,26.677069 L206.052315,16.6383472 C206.052315,16.6383472 202.316599,14 192.184574,14 C182.052549,14 177,17.864544 177,17.864544 Z" id="Path-6"></path>
                <path d="M347,17.864544 L347.044449,59.8503502 L359.104815,59.8503507 L359.104815,26.677069 C359.104815,26.677069 361.354932,24.8825733 365.70031,24.8825734 C370.045688,24.8825735 373.214409,26.677069 373.214409,26.677069 L376.052315,16.6383472 C376.052315,16.6383472 372.316599,14 362.184574,14 C352.052549,14 347,17.864544 347,17.864544 Z" id="Path-6"></path>
                <path d="M251.231119,41.7721303 L222.322483,41.8443913 C222.322483,41.8443913 224.481694,50.8155928 233.161291,50.8323565 C241.885586,50.8323796 246.454872,48.9033203 246.454872,48.9033203 L249.125251,58.7490427 C249.125251,58.7490427 246.256985,59.8270021 241.254757,60.5596809 C238.793058,60.9202472 235.7541,61.1085357 232.403952,61.2167863 C224.681167,61.4663263 218.48001,58.4956549 214.158355,53.3926095 C212.795767,51.7836548 210.918131,50.1151017 209.713328,44.3651475 C207.701484,34.7635701 209.639827,22.794338 219.471777,16.8776018 C223.416958,14.5034443 227.28955,13.9493572 230.850277,14.0035164 C235.423467,14.0730754 239.424573,15.3223326 241.793046,16.8776017 C245.141941,19.0766694 247.975109,23.057577 249.522747,28.0720587 C252.001064,36.8926544 251.231119,41.7721303 251.231119,41.7721303 Z M239.291233,33.8453074 L222.246454,33.7971235 C222.246454,33.7971235 221.716671,24.7678469 230.503952,24.7678468 C239.291233,24.7678466 239.291233,33.8453074 239.291233,33.8453074 Z" id="Combined-Shape"></path>
                <path d="M293.942203,58.710912 L291.787551,48.8860416 C291.787551,48.8860416 286.522586,51.1243141 281.470827,51.124314 C276.419067,51.1243138 269.952515,48.6003361 269.952515,38.3041734 C269.952515,28.0080108 276.91248,25.0168495 281.886851,25.0168497 C286.861221,25.01685 289.820915,27.2057809 289.820915,27.2057809 L293.443597,16.9809872 C293.443597,16.9809872 288.687366,14 280.34351,14 C275.908527,14 268.778747,16.0757777 264.09961,20.7945418 C259.975547,24.9535318 258,31.3195653 258,37.9572269 C258,44.2357694 259.500894,50.1109307 263.099282,54.1842461 C267.621334,59.3031326 274.943393,61.848493 280.968326,61.8484925 C291.787552,61.8484917 293.942203,58.710912 293.942203,58.710912 Z" id="Path-12"></path>
                <path d="M339.231119,42.7721303 L310.322483,42.8443913 C310.322483,42.8443913 312.481694,51.8155928 321.161291,51.8323565 C329.885586,51.8323796 334.454872,49.9033203 334.454872,49.9033203 L337.125251,59.7490427 C337.125251,59.7490427 334.256985,60.8270021 329.254757,61.5596809 C326.793058,61.9202472 323.7541,62.1085357 320.403952,62.2167863 C312.681167,62.4663263 306.48001,59.4956549 302.158355,54.3926095 C300.795767,52.7836548 298.918131,51.1151017 297.713328,45.3651475 C295.701484,35.7635701 297.639827,23.794338 307.471777,17.8776018 C311.416958,15.5034443 315.28955,14.9493572 318.850277,15.0035164 C323.423467,15.0730754 327.424573,16.3223326 329.793046,17.8776017 C333.141941,20.0766694 335.975109,24.057577 337.522747,29.0720587 C340.001064,37.8926544 339.231119,42.7721303 339.231119,42.7721303 Z M327.291233,34.8453074 L310.246454,34.7971235 C310.246454,34.7971235 309.716671,25.7678469 318.503952,25.7678468 C327.291233,25.7678466 327.291233,34.8453074 327.291233,34.8453074 Z" id="Combined-Shape"></path>
                <path d="M46,37 L66,37 L66,40 L46,40 L46,60 L43,60 L43,15 L44.5,15 L69,15 L69,18 L46,18 L46,37 Z" id="Combined-Shape"></path>
                <path d="M95,17.9740601 L95,18 L81,18 L81,38 L95,38 L95,38.017893 C95.0151575,38.0178866 95.0305175,38.0178833 95.0460815,38.0178833 C96.7801514,38.0178833 99.5155945,37.5639648 102.100281,35.0615845 C104.684967,32.5592041 105.022217,29.2583618 105.022217,27.9919434 C105.022217,26.7255249 104.632874,23.9005737 102.673984,21.5984587 C100.715095,19.2963436 98.0620728,17.9740601 95.0210483,17.9740601 L95,17.9740601 Z M95,15.0490012 L95,15 L79.5,15 L78,15 L78,60 L81,60 L81,41 L95,41 L95,40.9945489 C96.5389801,40.968895 97.8958863,40.8228683 100,39.9935303 C102.528114,38.9970722 105.401184,36.5928955 107.026489,32.9967651 C108,30.5078936 108.021729,28.6414795 108.021729,27.9851685 C108.021729,27.3288574 107.700562,24.0697021 106.553406,22.0238647 C105.40625,19.9780273 102.932678,16.5931396 98.0212402,15.3423462 C97.2530405,15.1509254 95.9152971,15.077311 95,15.0490012 Z" id="Combined-Shape"></path>
            </g>
        </g>
    </g>
</svg>